<svg xmlns="http://www.w3.org/2000/svg" width="1024" height="1024" viewBox="0 0 1024 1024">
<defs>
<radialGradient id="bg" cx="50%" cy="40%" r="75%"><stop offset="0" stop-color="#14594F"/><stop offset=".55" stop-color="#0B2E2A"/><stop offset="1" stop-color="#051816"/></radialGradient>
<linearGradient id="gold" x1="0" y1="0" x2="1" y2="1"><stop offset="0" stop-color="#F7E3A1"/><stop offset=".45" stop-color="#D9AE4E"/><stop offset="1" stop-color="#A8782A"/></linearGradient>
<radialGradient id="glow" cx="50%" cy="45%" r="38%"><stop offset="0" stop-color="#E8C766" stop-opacity=".28"/><stop offset="1" stop-color="#E8C766" stop-opacity="0"/></radialGradient>
<mask id="cres"><rect width="1024" height="1024" fill="#000"/><circle cx="512" cy="455" r="74" fill="#fff"/><circle cx="542" cy="444" r="62" fill="#000"/></mask>
<filter id="sh"><feDropShadow dx="0" dy="5" stdDeviation="8" flood-color="#000" flood-opacity=".45"/></filter>
</defs>
<rect width="1024" height="1024" fill="url(#bg)"/><rect width="1024" height="1024" fill="url(#glow)"/>
<circle cx="512" cy="455" r="236" fill="none" stroke="url(#gold)" stroke-width="4" opacity=".6"/>
<circle cx="512" cy="455" r="224" fill="none" stroke="url(#gold)" stroke-width="1.5" opacity=".35"/>
<g filter="url(#sh)">
<polygon points="662.0,305.0 662.0,605.0 362.0,605.0 362.0,305.0" fill="#E8C766" fill-opacity=".06" stroke="url(#gold)" stroke-width="9" stroke-linejoin="round"/>
<polygon points="724.1,455.0 512.0,667.1 299.9,455.0 512.0,242.9" fill="#E8C766" fill-opacity=".06" stroke="url(#gold)" stroke-width="9" stroke-linejoin="round"/>
<rect width="1024" height="1024" fill="url(#gold)" mask="url(#cres)"/>
</g>
<circle cx="512.0" cy="193.0" r="6" fill="url(#gold)"/><circle cx="697.3" cy="269.7" r="6" fill="url(#gold)"/><circle cx="774.0" cy="455.0" r="6" fill="url(#gold)"/><circle cx="697.3" cy="640.3" r="6" fill="url(#gold)"/><circle cx="326.7" cy="640.3" r="6" fill="url(#gold)"/><circle cx="250.0" cy="455.0" r="6" fill="url(#gold)"/><circle cx="326.7" cy="269.7" r="6" fill="url(#gold)"/>

</svg>